<?xml version="1.0" encoding="utf-8"?>
<!-- Generator: Adobe Illustrator 21.1.0, SVG Export Plug-In . SVG Version: 6.00 Build 0)  -->
<svg version="1.1" id="logo" xmlns="http://www.w3.org/2000/svg" xmlns:xlink="http://www.w3.org/1999/xlink" x="0px" y="0px"
	 viewBox="0 0 253 66" style="enable-background:new 0 0 253 66;" xml:space="preserve">
<style type="text/css">
	.st0{fill:#FFFFFF;}
	.st1{fill:#FAB200;}
</style>
<title>logo</title>
<g>
	<g>
		<path class="st0" d="M35.2,50.6L35,51.3c-2.1,1.4-4.5,2.1-7.1,2.1c-5.9,0-11.2-3.8-11.2-11.6V30.1h-5.2v-6.8h5.2v-9.1l8.4-1.1
			l0.7,0.4v9.8h7.7l1.1,6.8h-8.8v10.7c0,3.1,1.5,4.7,3.7,4.7c0.9,0,1.8-0.4,2.6-0.9l0.6,0.3L35.2,50.6z"/>
		<path class="st0" d="M63.1,24.1l-2.5,6.3L60,30.7c-1.1-0.6-2.4-0.9-3.6-0.8c-3.1,0-5.7,2.3-5.7,6.5v16.3h-9.2V32.3
			c0-1.4-0.4-2.2-1.4-2.2c-0.3,0-0.6,0.1-0.8,0.3l-0.6-0.3L37.6,24l0.4-0.7c1.4-0.9,3.1-1.3,4.8-1.3c2.5-0.1,4.8,1.4,5.8,3.7
			c2.2-2.4,5.3-3.7,8.6-3.7c2,0,3.9,0.5,5.7,1.4L63.1,24.1z"/>
		<path class="st0" d="M72.1,40c0.5,4.5,4.2,6.6,8.4,6.6c3.1,0.1,6.1-1.1,8.3-3.3h0.7l4.2,4v0.7c-3.3,3.9-8.8,5.4-13.6,5.4
			c-9,0-17-5.4-17-15.6c0-9.1,6.5-15.7,16.1-15.7C88.7,22,95,28.5,95,37.5c0,0.8-0.1,1.6-0.2,2.5L72.1,40z M72,35.2h14.2
			c-0.4-4.2-3.2-6.6-7.1-6.6c-3.7-0.2-6.9,2.7-7.1,6.4C72,35,72,35.1,72,35.2z"/>
		<path class="st0" d="M207.4,51.5l-0.4,0.7c-1.5,0.9-3.2,1.3-5,1.3c-5.1,0-7.9-2.8-7.9-8.3v-9.4c0-3.3-1.9-5.7-5.4-5.7
			c-3-0.1-5.5,2.1-5.6,5.1c0,0.2,0,0.4,0,0.6v17h-9.3V32.3c0-1.4-0.4-2.2-1.3-2.2c-0.3,0-0.7,0.1-0.9,0.3l-0.6-0.3L170,24l0.4-0.7
			c1.4-0.8,3-1.3,4.6-1.3c2.6-0.1,5,1.2,6.3,3.3c2.7-2.2,6.1-3.4,9.6-3.3c7.6,0,12.7,5.1,12.7,12.9v8.1c0,1.4,0.4,2.2,1.3,2.2
			c0.3,0,0.7-0.1,0.9-0.3l0.6,0.3L207.4,51.5z"/>
	</g>
	<path class="st1" d="M152,22c-10,0-16.3,6.6-16.3,15.7S142,53.4,152,53.4c9.9,0,16.3-6.6,16.3-15.7S161.9,22,152,22z M152,45.4
		c-4.3,0-7.7-3.5-7.7-7.7c0-4.3,3.5-7.7,7.7-7.7c4.3,0,7.7,3.5,7.7,7.7C159.7,42,156.2,45.4,152,45.4C152,45.4,152,45.4,152,45.4
		L152,45.4z"/>
	<path class="st0" d="M225.3,22c-10,0-16.3,6.6-16.3,15.7s6.3,15.7,16.3,15.7c9.9,0,16.3-6.6,16.3-15.7S235.2,22,225.3,22z
		 M225.3,45.4c-4.3,0-7.7-3.5-7.7-7.7c0-4.3,3.5-7.7,7.7-7.7c4.3,0,7.7,3.5,7.7,7.7c0,0,0,0,0,0C233,42,229.5,45.4,225.3,45.4
		L225.3,45.4L225.3,45.4z"/>
	<path class="st0" d="M117.2,22c-3.1,0-6.1,1-8.6,2.8v-5.4c0-5.6-2.9-8.3-8-8.3c-1.7,0-3.4,0.4-4.9,1.3l-0.3,0.7l1.1,6.2l0.6,0.4
		c0.2-0.3,0.6-0.4,0.9-0.4c1,0,1.3,0.8,1.3,2.3v31.1h7.8v-3.2c2.7,2.5,6.3,4,10,3.9c8.7,0,14.4-6.9,14.4-15.7S125.9,22,117.2,22z
		 M115.4,45.4c-4.3,0-7.7-3.5-7.7-7.7s3.5-7.7,7.7-7.7c4.3,0,7.7,3.5,7.7,7.7c0,0,0,0,0,0C123.2,42,119.7,45.4,115.4,45.4
		C115.5,45.4,115.4,45.4,115.4,45.4L115.4,45.4z"/>
</g>
</svg>
