<?xml version="1.0" encoding="utf-8"?>
<!-- Generator: Adobe Illustrator 21.1.0, SVG Export Plug-In . SVG Version: 6.00 Build 0)  -->
<svg version="1.1" id="logo" xmlns="http://www.w3.org/2000/svg" xmlns:xlink="http://www.w3.org/1999/xlink" x="0px" y="0px"
	 viewBox="0 0 259 72" style="enable-background:new 0 0 259 72;" xml:space="preserve">
<style type="text/css">
	.st0{fill:#FFFFFF;}
	.st1{fill:#FAB200;}
</style>
<title>logo</title>
<g>
	<g>
		<path class="st0" d="M38.2,53.6L38,54.3c-2.1,1.4-4.5,2.1-7.1,2.1c-5.9,0-11.2-3.8-11.2-11.6V33.1h-5.2v-6.8h5.2v-9.1l8.4-1.1
			l0.7,0.4v9.8h7.7l1.1,6.8h-8.8v10.7c0,3.1,1.5,4.7,3.7,4.7c0.9,0,1.8-0.4,2.6-0.9l0.6,0.3L38.2,53.6z"/>
		<path class="st0" d="M66.1,27.1l-2.5,6.3L63,33.7c-1.1-0.6-2.4-0.9-3.6-0.8c-3.1,0-5.7,2.3-5.7,6.5v16.3h-9.2V35.3
			c0-1.4-0.4-2.2-1.4-2.2c-0.3,0-0.6,0.1-0.8,0.3l-0.6-0.3L40.6,27l0.4-0.7c1.4-0.9,3.1-1.3,4.8-1.3c2.5-0.1,4.8,1.4,5.8,3.7
			c2.2-2.4,5.3-3.7,8.6-3.7c2,0,3.9,0.5,5.7,1.4L66.1,27.1z"/>
		<path class="st0" d="M75.1,43c0.5,4.5,4.2,6.6,8.4,6.6c3.1,0.1,6.1-1.1,8.3-3.3h0.7l4.2,4V51c-3.3,3.9-8.8,5.4-13.6,5.4
			c-9,0-17-5.4-17-15.6c0-9.1,6.5-15.7,16.1-15.7C91.7,25,98,31.5,98,40.5c0,0.8-0.1,1.6-0.2,2.5H75.1z M75,38.2h14.2
			c-0.4-4.2-3.2-6.6-7.1-6.6c-3.7-0.2-6.9,2.7-7.1,6.4C75,38,75,38.1,75,38.2z"/>
		<path class="st0" d="M210.4,54.5l-0.4,0.7c-1.5,0.9-3.2,1.3-5,1.3c-5.1,0-7.9-2.8-7.9-8.3v-9.4c0-3.3-1.9-5.7-5.4-5.7
			c-3-0.1-5.5,2.1-5.6,5.1c0,0.2,0,0.4,0,0.6v17h-9.3V35.3c0-1.4-0.4-2.2-1.3-2.2c-0.3,0-0.7,0.1-0.9,0.3l-0.6-0.3l-1-6.1l0.4-0.7
			c1.4-0.8,3-1.3,4.6-1.3c2.6-0.1,5,1.2,6.3,3.3c2.7-2.2,6.1-3.4,9.6-3.3c7.6,0,12.7,5.1,12.7,12.9V46c0,1.4,0.4,2.2,1.3,2.2
			c0.3,0,0.7-0.1,0.9-0.3l0.6,0.3L210.4,54.5z"/>
	</g>
	<path class="st1" d="M155,25c-10,0-16.3,6.6-16.3,15.7S145,56.4,155,56.4c9.9,0,16.3-6.6,16.3-15.7S164.9,25,155,25z M155,48.4
		c-4.3,0-7.7-3.5-7.7-7.7c0-4.3,3.5-7.7,7.7-7.7c4.3,0,7.7,3.5,7.7,7.7C162.7,45,159.2,48.4,155,48.4L155,48.4L155,48.4z"/>
	<path class="st0" d="M228.3,25c-10,0-16.3,6.6-16.3,15.7s6.3,15.7,16.3,15.7c9.9,0,16.3-6.6,16.3-15.7S238.2,25,228.3,25z
		 M228.3,48.4c-4.3,0-7.7-3.5-7.7-7.7c0-4.3,3.5-7.7,7.7-7.7c4.3,0,7.7,3.5,7.7,7.7l0,0C236,45,232.5,48.4,228.3,48.4L228.3,48.4
		L228.3,48.4z"/>
	<path class="st0" d="M120.2,25c-3.1,0-6.1,1-8.6,2.8v-5.4c0-5.6-2.9-8.3-8-8.3c-1.7,0-3.4,0.4-4.9,1.3l-0.3,0.7l1.1,6.2l0.6,0.4
		c0.2-0.3,0.6-0.4,0.9-0.4c1,0,1.3,0.8,1.3,2.3v31.1h7.8v-3.2c2.7,2.5,6.3,4,10,3.9c8.7,0,14.4-6.9,14.4-15.7S128.9,25,120.2,25z
		 M118.4,48.4c-4.3,0-7.7-3.5-7.7-7.7s3.5-7.7,7.7-7.7c4.3,0,7.7,3.5,7.7,7.7l0,0C126.2,45,122.7,48.4,118.4,48.4
		C118.5,48.4,118.4,48.4,118.4,48.4L118.4,48.4z"/>
</g>
</svg>
